HIERARCHY
ROOT joint_Root
{
	OFFSET 0.0 0.0 0.0
	CHANNELS 6 Xposition Yposition Zposition Zrotation Xrotation Yrotation 
	JOINT Hips
	{
		OFFSET -17.1583 93.1646 452.98
		CHANNELS 6 Xposition Yposition Zposition Zrotation Xrotation Yrotation 
		JOINT Spine
		{
			OFFSET 15.7357 0.0 0.0
			CHANNELS 6 Xposition Yposition Zposition Zrotation Xrotation Yrotation 
			JOINT Chest
			{
				OFFSET 8.98455 -0.406207 0.0
				CHANNELS 6 Xposition Yposition Zposition Zrotation Xrotation Yrotation 
				JOINT Neck
				{
					OFFSET 16.3773 0.0 0.0
					CHANNELS 6 Xposition Yposition Zposition Zrotation Xrotation Yrotation 
					JOINT Head
					{
						OFFSET 6.45672 0.0 0.0
						CHANNELS 6 Xposition Yposition Zposition Zrotation Xrotation Yrotation 
						End Site
						{
							OFFSET 0.0 0.0 0.0
						}
					}
				}
				JOINT Shoulder_L
				{
					OFFSET 12.9942 -0.242716 4.98039
					CHANNELS 6 Xposition Yposition Zposition Zrotation Xrotation Yrotation 
					JOINT UpperArm_L
					{
						OFFSET 5.34809 0.0 0.0
						CHANNELS 6 Xposition Yposition Zposition Zrotation Xrotation Yrotation 
						JOINT LowerArm_L
						{
							OFFSET 24.3286 1.87007e-05 0.0
							CHANNELS 6 Xposition Yposition Zposition Zrotation Xrotation Yrotation 
							JOINT Hand_L
							{
								OFFSET 22.2916 0.0 0.0
								CHANNELS 6 Xposition Yposition Zposition Zrotation Xrotation Yrotation 
								End Site
								{
									OFFSET 0.0 0.0 0.0
								}
							}
						}
					}
				}
				JOINT Shoulder_R
				{
					OFFSET 12.9945 -0.242716 -4.98039
					CHANNELS 6 Xposition Yposition Zposition Zrotation Xrotation Yrotation 
					JOINT UpperArm_R
					{
						OFFSET -5.34813 0.0 0.0
						CHANNELS 6 Xposition Yposition Zposition Zrotation Xrotation Yrotation 
						JOINT LowerArm_R
						{
							OFFSET -24.3289 0.000322201 0.0
							CHANNELS 6 Xposition Yposition Zposition Zrotation Xrotation Yrotation 
							JOINT Hand_R
							{
								OFFSET -22.2915 -0.000108084 0.0
								CHANNELS 6 Xposition Yposition Zposition Zrotation Xrotation Yrotation 
								End Site
								{
									OFFSET 0.0 0.0 0.0
								}
							}
						}
					}
				}
			}
		}
		JOINT UpperLeg_L
		{
			OFFSET -2.19248 -6.46944 0.0
			CHANNELS 6 Xposition Yposition Zposition Zrotation Xrotation Yrotation 
			JOINT LowerLeg_L
			{
				OFFSET 39.0811 0.0 -1.23785e-05
				CHANNELS 6 Xposition Yposition Zposition Zrotation Xrotation Yrotation 
				JOINT Foot_L
				{
					OFFSET 40.9854 0.0 -1.26872e-05
					CHANNELS 6 Xposition Yposition Zposition Zrotation Xrotation Yrotation 
					JOINT Toes_L
					{
						OFFSET 11.7543 0.0 0.0
						CHANNELS 6 Xposition Yposition Zposition Zrotation Xrotation Yrotation 
						End Site
						{
							OFFSET 0.0 0.0 0.0
						}
					}
				}
			}
		}
		JOINT UpperLeg_R
		{
			OFFSET -2.19251 6.46944 0.0
			CHANNELS 6 Xposition Yposition Zposition Zrotation Xrotation Yrotation 
			JOINT LowerLeg_R
			{
				OFFSET -39.0811 -0.00228153 -0.0401928
				CHANNELS 6 Xposition Yposition Zposition Zrotation Xrotation Yrotation 
				JOINT Foot_R
				{
					OFFSET -40.9854 0.0 0.0
					CHANNELS 6 Xposition Yposition Zposition Zrotation Xrotation Yrotation 
					JOINT Toes_R
					{
						OFFSET -11.7543 0.0 0.0
						CHANNELS 6 Xposition Yposition Zposition Zrotation Xrotation Yrotation 
						End Site
						{
							OFFSET 0.0 0.0 0.0
						}
					}
				}
			}
		}
	}
}
MOTION
Frames:	5
Frame Time:	0.0333333
0.000000 0.000000 0.000000 0.000000 0.000000 -0.000000 1.360050 93.225300 0.913337 87.446600 -3.994970 0.166478 15.735700 0.000005 -0.000001 80.797900 85.446200 -74.000400 8.984550 -0.406207 -0.000000 1.370230 -1.833360 13.606700 16.377300 -0.000001 -0.000001 7.352440 5.812820 6.560270 6.456720 -0.000001 -0.000000 -17.441000 -0.562872 20.829200 12.994200 -0.242716 4.980390 -85.836600 -7.871500 -62.007900 5.348090 -0.000007 -0.000001 -29.126200 -59.105200 -78.417700 24.328600 0.000019 0.000005 6.453520 33.458100 -11.594100 22.291600 -0.000001 0.000005 52.170100 4.938400 8.602710 12.994500 -0.242716 -4.980390 89.766800 0.568703 -67.703700 -5.348130 -0.000001 -0.000004 -67.264500 12.188000 -13.780600 -24.328900 0.000322 -0.000009 1.343170 3.256710 -22.443300 -22.291500 -0.000108 -0.000004 6.859790 5.239740 1.702240 -2.192480 -6.469440 -0.000000 -174.255000 -13.310700 0.057350 39.081100 -0.000007 -0.000012 0.038065 -0.143218 14.884200 40.985400 -0.000006 -0.000013 0.902061 13.258300 -69.520500 11.754300 -0.000000 0.000003 -0.001041 0.183610 -9.128610 -2.192510 6.469440 -0.000001 175.926000 6.757870 -176.902000 -39.081100 -0.002282 -0.040193 -0.000467 0.036067 6.034600 -40.985400 0.000008 0.000006 -10.689400 11.191500 -62.093600 -11.754300 -0.000006 -0.000006 -0.010388 0.274179 -5.433410
0.000000 0.000000 0.000000 0.000000 0.000000 -0.000000 1.445370 93.227300 0.902978 87.456200 -4.552480 -0.064159 15.735700 0.000005 -0.000001 79.729300 85.353700 -72.651000 8.984550 -0.406207 -0.000000 1.544080 -2.038300 14.173300 16.377300 -0.000001 -0.000001 7.425330 5.335950 7.161710 6.456720 -0.000001 -0.000000 -17.618900 -1.018280 20.874200 12.994200 -0.242716 4.980390 -85.948900 -7.611650 -61.867000 5.348090 -0.000007 -0.000001 -29.782800 -58.168800 -75.441700 24.328600 0.000019 0.000005 2.953040 28.563600 -6.157540 22.291600 -0.000001 0.000005 49.273300 4.908330 9.211370 12.994500 -0.242716 -4.980390 89.761200 0.576422 -67.497800 -5.348130 -0.000001 -0.000004 -67.333600 13.088800 -14.327800 -24.328900 0.000322 -0.000009 1.447050 3.370980 -23.263900 -22.291500 -0.000108 -0.000004 6.403610 5.239730 1.702620 -2.192480 -6.469440 -0.000000 -174.356000 -13.942200 -0.073902 39.081100 -0.000007 -0.000012 0.038017 -0.143443 14.844200 40.985400 -0.000006 -0.000013 0.971982 13.319700 -69.588300 11.754300 -0.000000 0.000003 -0.001064 0.183935 -9.115440 -2.192510 6.469440 -0.000001 175.907000 6.185600 -177.241000 -39.081100 -0.002282 -0.040193 -0.000145 0.032914 6.052750 -40.985400 0.000008 0.000006 -10.656800 11.169100 -62.118000 -11.754300 -0.000006 -0.000006 -0.010773 0.276993 -5.318270
0.000000 0.000000 0.000000 0.000000 0.000000 -0.000000 1.517980 93.230600 0.901733 87.481400 -5.178340 -0.175729 15.735700 0.000005 -0.000001 79.346700 85.224000 -71.975700 8.984550 -0.406207 -0.000000 1.803520 -2.146050 14.764200 16.377300 -0.000001 -0.000001 7.582530 4.865220 7.680680 6.456720 -0.000001 -0.000000 -17.803500 -1.631130 20.821700 12.994200 -0.242716 4.980390 -86.060500 -7.376370 -61.791100 5.348090 -0.000007 -0.000001 -32.642500 -57.634800 -73.931500 24.328600 0.000019 0.000005 0.445186 24.494700 -1.073240 22.291600 -0.000001 0.000005 45.030800 4.858920 10.188200 12.994500 -0.242716 -4.980390 89.739500 0.623848 -67.339100 -5.348130 -0.000001 -0.000004 -67.181700 14.028400 -14.748400 -24.328900 0.000322 -0.000009 1.408060 3.212060 -23.702300 -22.291500 -0.000108 -0.000004 6.332150 5.242890 1.619790 -2.192480 -6.469440 -0.000000 -174.433000 -14.572800 0.006076 39.081100 -0.000007 -0.000012 0.037622 -0.143510 14.690100 40.985400 -0.000006 -0.000013 1.011230 13.338000 -69.587000 11.754300 -0.000000 0.000003 -0.001193 0.185739 -9.042100 -2.192510 6.469440 -0.000001 175.870000 5.473440 -177.486000 -39.081100 -0.002282 -0.040193 -0.000207 0.033184 6.109780 -40.985400 0.000008 0.000006 -10.658800 11.025700 -62.161200 -11.754300 -0.000006 -0.000006 -0.010998 0.278618 -5.251790
0.000000 0.000000 0.000000 0.000000 0.000000 -0.000000 1.587360 93.232400 0.924342 87.517200 -5.728640 -0.302761 15.735700 0.000005 -0.000001 79.172500 85.112800 -71.502900 8.984550 -0.406207 -0.000000 2.030500 -2.216230 15.366200 16.377300 -0.000001 -0.000001 7.744720 4.399410 8.228330 6.456720 -0.000001 -0.000000 -17.925900 -2.249840 20.548800 12.994200 -0.242716 4.980390 -86.207100 -7.109450 -61.824000 5.348090 -0.000007 -0.000001 -36.892300 -57.540000 -73.264800 24.328600 0.000019 0.000005 0.000160 20.699100 -0.000001 22.291600 -0.000001 0.000005 40.490200 4.742250 12.392900 12.994500 -0.242716 -4.980390 89.727300 0.649270 -67.218400 -5.348130 -0.000001 -0.000004 -67.071400 14.469300 -15.058700 -24.328900 0.000322 -0.000009 1.406700 3.231460 -23.555400 -22.291500 -0.000108 -0.000004 6.243570 5.248750 1.465650 -2.192480 -6.469440 -0.000000 -174.523000 -15.100700 0.060583 39.081100 -0.000007 -0.000012 0.036585 -0.141338 14.512500 40.985400 -0.000006 -0.000013 1.029760 13.302300 -69.483700 11.754300 -0.000000 0.000003 -0.000919 0.181882 -9.198860 -2.192510 6.469440 -0.000001 175.808000 5.109990 -177.700000 -39.081100 -0.002282 -0.040193 -0.000287 0.033810 6.132140 -40.985400 0.000008 0.000006 -10.480700 11.178800 -62.193300 -11.754300 -0.000006 -0.000006 -0.010838 0.277467 -5.298890
0.000000 0.000000 0.000000 0.000000 0.000000 -0.000000 1.613790 93.223400 0.980971 87.564900 -6.151620 -0.391189 15.735700 0.000005 -0.000001 78.794100 85.014800 -70.861000 8.984550 -0.406207 -0.000000 2.225970 -2.316860 15.898500 16.377300 -0.000001 -0.000001 7.856670 4.075390 8.697280 6.456720 -0.000001 -0.000000 -17.928200 -2.595540 20.350600 12.994200 -0.242716 4.980390 -86.451400 -6.714170 -62.057800 5.348090 -0.000007 -0.000001 -40.954100 -58.018600 -72.213900 24.328600 0.000019 0.000005 0.000121 15.935300 -0.000001 22.291600 -0.000001 0.000005 35.874400 4.489780 16.771700 12.994500 -0.242716 -4.980390 89.709900 0.688344 -67.149400 -5.348130 -0.000001 -0.000004 -66.922500 14.700700 -15.212300 -24.328900 0.000322 -0.000009 1.406080 3.333350 -22.902300 -22.291500 -0.000108 -0.000004 6.330940 5.246110 1.535410 -2.192480 -6.469440 -0.000000 -174.598000 -15.494000 0.135983 39.081100 -0.000007 -0.000012 0.037491 -0.145835 14.417300 40.985400 -0.000006 -0.000013 1.049050 13.308800 -69.561200 11.754300 -0.000000 0.000003 -0.000835 0.180659 -9.248550 -2.192510 6.469440 -0.000001 175.763000 4.794350 -177.947000 -39.081100 -0.002282 -0.040193 -0.001144 0.040062 6.393190 -40.985400 0.000008 0.000006 -10.160600 11.275400 -62.426500 -11.754300 -0.000006 -0.000006 -0.010810 0.277262 -5.307280
